<svg width="15" height="15" viewBox="0 0 14 14" fill="none" xmlns="http://www.w3.org/2000/svg">
<path d="M7.28665 1.84425C9.04747 1.84425 9.28758 1.84425 10.0079 1.84425C10.6482 1.84425 10.9684 2.00434 11.2085 2.08439C11.5286 2.24448 11.7687 2.32453 12.0089 2.56467C12.249 2.80481 12.409 3.04495 12.4891 3.36513C12.5691 3.60527 12.6492 3.92546 12.7292 4.56583C12.7292 5.28625 12.7292 5.44634 12.7292 7.28741C12.7292 9.12847 12.7292 9.28857 12.7292 10.009C12.7292 10.6494 12.5691 10.9695 12.4891 11.2097C12.329 11.5299 12.249 11.77 12.0089 12.0101C11.7687 12.2503 11.5286 12.4104 11.2085 12.4904C10.9684 12.5705 10.6482 12.6505 10.0079 12.7306C9.28758 12.7306 9.12751 12.7306 7.28665 12.7306C5.44579 12.7306 5.28572 12.7306 4.56538 12.7306C3.92508 12.7306 3.60494 12.5705 3.36482 12.4904C3.04467 12.3303 2.80456 12.2503 2.56445 12.0101C2.32434 11.77 2.16426 11.5299 2.08423 11.2097C2.00419 10.9695 1.92415 10.6494 1.84411 10.009C1.84411 9.28857 1.84411 9.12847 1.84411 7.28741C1.84411 5.44634 1.84411 5.28625 1.84411 4.56583C1.84411 3.92546 2.00419 3.60527 2.08423 3.36513C2.2443 3.04495 2.32434 2.80481 2.56445 2.56467C2.80456 2.32453 3.04467 2.16444 3.36482 2.08439C3.60494 2.00434 3.92508 1.9243 4.56538 1.84425C5.28572 1.84425 5.52583 1.84425 7.28665 1.84425ZM7.28665 0.643555C5.44579 0.643555 5.28572 0.643555 4.56538 0.643555C3.84505 0.643555 3.36482 0.803648 2.96464 0.963741C2.56445 1.12383 2.16426 1.36397 1.76408 1.7642C1.36389 2.16444 1.20382 2.48462 0.963704 2.9649C0.80363 3.36513 0.723592 3.84541 0.643555 4.56583C0.643555 5.28625 0.643555 5.52639 0.643555 7.28741C0.643555 9.12847 0.643555 9.28857 0.643555 10.009C0.643555 10.7294 0.80363 11.2097 0.963704 11.6099C1.12378 12.0101 1.36389 12.4104 1.76408 12.8106C2.16426 13.2108 2.48441 13.3709 2.96464 13.6111C3.36482 13.7712 3.84505 13.8512 4.56538 13.9313C5.28572 13.9313 5.52583 13.9313 7.28665 13.9313C9.04747 13.9313 9.28758 13.9313 10.0079 13.9313C10.7283 13.9313 11.2085 13.7712 11.6087 13.6111C12.0089 13.451 12.409 13.2108 12.8092 12.8106C13.2094 12.4104 13.3695 12.0902 13.6096 11.6099C13.7697 11.2097 13.8497 10.7294 13.9297 10.009C13.9297 9.28857 13.9297 9.04843 13.9297 7.28741C13.9297 5.52639 13.9297 5.28625 13.9297 4.56583C13.9297 3.84541 13.7697 3.36513 13.6096 2.9649C13.4495 2.56467 13.2094 2.16444 12.8092 1.7642C12.409 1.36397 12.0889 1.20388 11.6087 0.963741C11.2085 0.803648 10.7283 0.723601 10.0079 0.643555C9.28758 0.643555 9.12751 0.643555 7.28665 0.643555Z" fill="#227DA5"/>
<path d="M7.28665 3.84541C5.36576 3.84541 3.84505 5.36629 3.84505 7.28741C3.84505 9.20852 5.36576 10.7294 7.28665 10.7294C9.20755 10.7294 10.7283 9.20852 10.7283 7.28741C10.7283 5.36629 9.20755 3.84541 7.28665 3.84541ZM7.28665 9.52871C6.08609 9.52871 5.04561 8.56815 5.04561 7.28741C5.04561 6.08671 6.00605 5.04611 7.28665 5.04611C8.48721 5.04611 9.5277 6.00666 9.5277 7.28741C9.5277 8.4881 8.48721 9.52871 7.28665 9.52871Z" fill="#227DA5"/>
<path d="M10.8083 4.56583C11.2503 4.56583 11.6087 4.20745 11.6087 3.76536C11.6087 3.32328 11.2503 2.9649 10.8083 2.9649C10.3663 2.9649 10.0079 3.32328 10.0079 3.76536C10.0079 4.20745 10.3663 4.56583 10.8083 4.56583Z" fill="#227DA5"/>
</svg>
