<svg width="17" height="13" viewBox="0 0 17 13" fill="none" xmlns="http://www.w3.org/2000/svg">
<path d="M1.46224 6.74736C1.40321 6.58833 1.40321 6.4134 1.46224 6.25437C2.0372 4.86026 3.01315 3.66827 4.26637 2.8295C5.5196 1.99074 6.99365 1.54297 8.50166 1.54297C10.0097 1.54297 11.4837 1.99074 12.7369 2.8295C13.9902 3.66827 14.9661 4.86026 15.5411 6.25437C15.6001 6.4134 15.6001 6.58833 15.5411 6.74736C14.9661 8.14147 13.9902 9.33346 12.7369 10.1722C11.4837 11.011 10.0097 11.4588 8.50166 11.4588C6.99365 11.4588 5.5196 11.011 4.26637 10.1722C3.01315 9.33346 2.0372 8.14147 1.46224 6.74736Z" stroke="white" stroke-width="1.41667" stroke-linecap="round" stroke-linejoin="round"/>
<path d="M8.50195 8.625C9.67556 8.625 10.627 7.6736 10.627 6.5C10.627 5.32639 9.67556 4.375 8.50195 4.375C7.32835 4.375 6.37695 5.32639 6.37695 6.5C6.37695 7.6736 7.32835 8.625 8.50195 8.625Z" stroke="white" stroke-width="1.41667" stroke-linecap="round" stroke-linejoin="round"/>
</svg>
