<svg width="15" height="15" viewBox="0 0 15 15" fill="none" xmlns="http://www.w3.org/2000/svg">
<path d="M12.697 3.01417C11.3846 1.70616 9.63474 0.979492 7.78764 0.979492C3.94761 0.979492 0.836693 4.07996 0.836693 7.90709C0.836693 9.11821 1.17695 10.3293 1.76025 11.3467L0.788086 14.9316L4.4823 13.9627C5.50306 14.4956 6.62105 14.7862 7.78764 14.7862C11.6277 14.7862 14.7386 11.6858 14.7386 7.85865C14.69 6.06619 14.0095 4.32218 12.697 3.01417ZM11.1416 10.3778C10.9958 10.7653 10.3153 11.1529 9.975 11.2013C9.68335 11.2498 9.29449 11.2498 8.90563 11.1529C8.66259 11.056 8.32233 10.9591 7.93347 10.7653C6.18358 10.0387 5.06559 8.29465 4.96838 8.14931C4.87116 8.05242 4.23926 7.22886 4.23926 6.35686C4.23926 5.48485 4.67673 5.09729 4.82255 4.90352C4.96838 4.70974 5.16281 4.70974 5.30863 4.70974C5.40585 4.70974 5.55167 4.70974 5.64889 4.70974C5.7461 4.70974 5.89193 4.66129 6.03775 5.00041C6.18358 5.33952 6.52383 6.21152 6.57244 6.25997C6.62105 6.35686 6.62105 6.45375 6.57244 6.55064C6.52383 6.64753 6.47522 6.74442 6.37801 6.84131C6.28079 6.9382 6.18357 7.08353 6.13497 7.13197C6.03775 7.22886 5.94054 7.32575 6.03775 7.47109C6.13497 7.66487 6.47522 8.19776 7.00991 8.68221C7.69042 9.26354 8.22511 9.45732 8.41955 9.55421C8.61398 9.6511 8.71119 9.60266 8.80841 9.50577C8.90562 9.40888 9.24588 9.02132 9.3431 8.82754C9.44031 8.63376 9.58614 8.68221 9.73196 8.73065C9.87778 8.7791 10.7527 9.2151 10.8986 9.31199C11.093 9.40888 11.1902 9.45732 11.2388 9.50577C11.2874 9.6511 11.2874 9.99021 11.1416 10.3778Z" fill="#227DA5"/>
</svg>
