<svg width="18" height="18" viewBox="0 0 16 8" fill="none" xmlns="http://www.w3.org/2000/svg">
<path fill-rule="evenodd" clip-rule="evenodd" d="M2.19831 9.97602C1.93772 9.89891 1.69996 9.76174 1.50508 9.57609C1.3102 9.39043 1.16392 9.16173 1.07858 8.90929C0.590963 7.60453 0.446483 2.15628 1.3856 1.08074C1.69816 0.730856 2.13945 0.515443 2.61369 0.481254C5.13306 0.216776 12.9169 0.25204 13.8109 0.569414C14.0623 0.649053 14.2921 0.783215 14.4829 0.961845C14.6736 1.14048 14.8205 1.35894 14.9126 1.60088C15.4453 2.94972 15.4634 7.85138 14.8403 9.14732C14.675 9.48466 14.3983 9.75792 14.0547 9.92312C13.1156 10.3816 3.44445 10.3727 2.19831 9.97602V9.97602ZM6.1986 7.4194L10.7136 5.12725L6.1986 2.81748V7.4194Z" fill="#227DA5"/>
</svg>
